<svg xmlns="http://www.w3.org/2000/svg" xmlns:xlink="http://www.w3.org/1999/xlink" version="1.1" x="0px" y="0px" viewBox="0 0 64 80" style="enable-background:new 0 0 64 64;" xml:space="preserve"><style type="text/css">
	.st0{fill:none;stroke:rgb(63,195,128);stroke-width:4;stroke-linecap:round;stroke-miterlimit:10;}
	.st1{fill:none;stroke:rgb(63,195,128);stroke-width:4;stroke-linecap:round;stroke-linejoin:round;stroke-miterlimit:10;}
	.st2{stroke:rgb(63,195,128);stroke-width:4;stroke-linecap:round;stroke-miterlimit:10;}
	.st3{clip-path:url(#SVGID_2_);fill:#FFFFFF;}
	.st4{fill:none;}
</style><g><path d="M32,4c15.4,0,28,12.6,28,28S47.4,60,32,60S4,47.4,4,32S16.6,4,32,4 M32,0C14.3,0,0,14.3,0,32s14.3,32,32,32s32-14.3,32-32   S49.7,0,32,0L32,0z" fill="rgb(63,195,128)"/></g><path class="st0" d="M49,32.2c0,9.4-7.6,17-17,17c-9.4,0-17-7.6-17-17"/><path class="st0" d="M39,24c0-2.8,2.2-5,5-5c2.8,0,5,2.2,5,5" fill="rgb(63,195,128)"/><path class="st0" d="M14.3,24c0-2.8,2.2-5,5-5c2.8,0,5,2.2,5,5" fill="rgb(63,195,128)"/></svg>
